<mxfile host="Electron" agent="Mozilla/5.0 (Windows NT 10.0; Win64; x64) AppleWebKit/537.36 (KHTML, like Gecko) draw.io/24.7.8 Chrome/128.0.6613.36 Electron/32.0.1 Safari/537.36" version="24.7.8">
  <diagram name="Page-1" id="tGeAfVR6dXLGmkXo2nKT">
    <mxGraphModel dx="864" dy="508" grid="1" gridSize="10" guides="1" tooltips="1" connect="1" arrows="1" fold="1" page="1" pageScale="1" pageWidth="850" pageHeight="1100" math="0" shadow="0">
      <root>
        <mxCell id="0" />
        <mxCell id="1" parent="0" />
        <mxCell id="MSWiMdGF2W7rRZncoCtX-2" value="" style="edgeStyle=orthogonalEdgeStyle;rounded=0;orthogonalLoop=1;jettySize=auto;html=1;" edge="1" parent="1" source="_uqVqwUY-_Iqj_t5mV5k-2" target="MSWiMdGF2W7rRZncoCtX-1">
          <mxGeometry relative="1" as="geometry" />
        </mxCell>
        <mxCell id="_uqVqwUY-_Iqj_t5mV5k-2" value="start" style="strokeWidth=2;html=1;shape=mxgraph.flowchart.start_1;whiteSpace=wrap;" parent="1" vertex="1">
          <mxGeometry x="389" y="70" width="100" height="60" as="geometry" />
        </mxCell>
        <mxCell id="MSWiMdGF2W7rRZncoCtX-4" value="" style="edgeStyle=orthogonalEdgeStyle;rounded=0;orthogonalLoop=1;jettySize=auto;html=1;" edge="1" parent="1" source="MSWiMdGF2W7rRZncoCtX-1" target="MSWiMdGF2W7rRZncoCtX-3">
          <mxGeometry relative="1" as="geometry" />
        </mxCell>
        <mxCell id="MSWiMdGF2W7rRZncoCtX-1" value="initialize game" style="rounded=1;whiteSpace=wrap;html=1;strokeWidth=2;" vertex="1" parent="1">
          <mxGeometry x="386.5" y="200" width="105" height="100" as="geometry" />
        </mxCell>
        <mxCell id="MSWiMdGF2W7rRZncoCtX-6" value="" style="edgeStyle=orthogonalEdgeStyle;rounded=0;orthogonalLoop=1;jettySize=auto;html=1;" edge="1" parent="1" source="MSWiMdGF2W7rRZncoCtX-3" target="MSWiMdGF2W7rRZncoCtX-5">
          <mxGeometry relative="1" as="geometry" />
        </mxCell>
        <mxCell id="MSWiMdGF2W7rRZncoCtX-12" style="edgeStyle=orthogonalEdgeStyle;rounded=0;orthogonalLoop=1;jettySize=auto;html=1;entryX=1;entryY=0.5;entryDx=0;entryDy=0;" edge="1" parent="1" target="MSWiMdGF2W7rRZncoCtX-3">
          <mxGeometry relative="1" as="geometry">
            <mxPoint x="559" y="400" as="targetPoint" />
            <mxPoint x="559" y="560" as="sourcePoint" />
            <Array as="points">
              <mxPoint x="559" y="400" />
            </Array>
          </mxGeometry>
        </mxCell>
        <mxCell id="MSWiMdGF2W7rRZncoCtX-3" value="display category" style="rounded=1;whiteSpace=wrap;html=1;strokeWidth=2;" vertex="1" parent="1">
          <mxGeometry x="386.5" y="350" width="105" height="100" as="geometry" />
        </mxCell>
        <mxCell id="MSWiMdGF2W7rRZncoCtX-8" value="" style="edgeStyle=orthogonalEdgeStyle;rounded=0;orthogonalLoop=1;jettySize=auto;html=1;" edge="1" parent="1" source="MSWiMdGF2W7rRZncoCtX-5" target="MSWiMdGF2W7rRZncoCtX-7">
          <mxGeometry relative="1" as="geometry" />
        </mxCell>
        <mxCell id="MSWiMdGF2W7rRZncoCtX-11" value="" style="edgeStyle=orthogonalEdgeStyle;rounded=0;orthogonalLoop=1;jettySize=auto;html=1;exitX=1;exitY=0.5;exitDx=0;exitDy=0;exitPerimeter=0;" edge="1" parent="1" source="MSWiMdGF2W7rRZncoCtX-5">
          <mxGeometry relative="1" as="geometry">
            <mxPoint x="559" y="560" as="sourcePoint" />
            <mxPoint x="704" y="560" as="targetPoint" />
          </mxGeometry>
        </mxCell>
        <mxCell id="MSWiMdGF2W7rRZncoCtX-14" value="" style="edgeStyle=orthogonalEdgeStyle;rounded=0;orthogonalLoop=1;jettySize=auto;html=1;" edge="1" parent="1" source="MSWiMdGF2W7rRZncoCtX-5" target="MSWiMdGF2W7rRZncoCtX-13">
          <mxGeometry relative="1" as="geometry" />
        </mxCell>
        <mxCell id="MSWiMdGF2W7rRZncoCtX-5" value="is the selected category valid??" style="strokeWidth=2;html=1;shape=mxgraph.flowchart.decision;whiteSpace=wrap;" vertex="1" parent="1">
          <mxGeometry x="384" y="507.5" width="110" height="105" as="geometry" />
        </mxCell>
        <mxCell id="MSWiMdGF2W7rRZncoCtX-7" value="Go to &quot;Ask Question&quot;" style="rounded=1;whiteSpace=wrap;html=1;strokeWidth=2;" vertex="1" parent="1">
          <mxGeometry x="70" y="510" width="105" height="100" as="geometry" />
        </mxCell>
        <mxCell id="MSWiMdGF2W7rRZncoCtX-10" value="Go to &quot;Display Categories&quot;" style="rounded=1;whiteSpace=wrap;html=1;strokeWidth=2;" vertex="1" parent="1">
          <mxGeometry x="705" y="507.5" width="105" height="100" as="geometry" />
        </mxCell>
        <mxCell id="MSWiMdGF2W7rRZncoCtX-16" value="" style="edgeStyle=orthogonalEdgeStyle;rounded=0;orthogonalLoop=1;jettySize=auto;html=1;" edge="1" parent="1" source="MSWiMdGF2W7rRZncoCtX-13" target="MSWiMdGF2W7rRZncoCtX-15">
          <mxGeometry relative="1" as="geometry" />
        </mxCell>
        <mxCell id="MSWiMdGF2W7rRZncoCtX-13" value="&quot;Ask Question&quot;" style="rounded=1;whiteSpace=wrap;html=1;strokeWidth=2;" vertex="1" parent="1">
          <mxGeometry x="386.5" y="672" width="105" height="100" as="geometry" />
        </mxCell>
        <mxCell id="MSWiMdGF2W7rRZncoCtX-18" value="" style="edgeStyle=orthogonalEdgeStyle;rounded=0;orthogonalLoop=1;jettySize=auto;html=1;" edge="1" parent="1" source="MSWiMdGF2W7rRZncoCtX-15" target="MSWiMdGF2W7rRZncoCtX-17">
          <mxGeometry relative="1" as="geometry" />
        </mxCell>
        <mxCell id="MSWiMdGF2W7rRZncoCtX-15" value="&quot;Get Player&#39;s Answer&quot;" style="rounded=1;whiteSpace=wrap;html=1;strokeWidth=2;" vertex="1" parent="1">
          <mxGeometry x="369" y="800" width="105" height="100" as="geometry" />
        </mxCell>
        <mxCell id="MSWiMdGF2W7rRZncoCtX-20" value="" style="edgeStyle=orthogonalEdgeStyle;rounded=0;orthogonalLoop=1;jettySize=auto;html=1;" edge="1" parent="1" source="MSWiMdGF2W7rRZncoCtX-17" target="MSWiMdGF2W7rRZncoCtX-19">
          <mxGeometry relative="1" as="geometry" />
        </mxCell>
        <mxCell id="MSWiMdGF2W7rRZncoCtX-24" value="" style="edgeStyle=orthogonalEdgeStyle;rounded=0;orthogonalLoop=1;jettySize=auto;html=1;" edge="1" parent="1" source="MSWiMdGF2W7rRZncoCtX-17" target="MSWiMdGF2W7rRZncoCtX-23">
          <mxGeometry relative="1" as="geometry">
            <Array as="points">
              <mxPoint x="530" y="1020" />
              <mxPoint x="530" y="980" />
            </Array>
          </mxGeometry>
        </mxCell>
        <mxCell id="MSWiMdGF2W7rRZncoCtX-17" value="&quot;is the answer correct?" style="strokeWidth=2;html=1;shape=mxgraph.flowchart.decision;whiteSpace=wrap;" vertex="1" parent="1">
          <mxGeometry x="349" y="970" width="100" height="100" as="geometry" />
        </mxCell>
        <mxCell id="MSWiMdGF2W7rRZncoCtX-19" value="Go to &quot;Show Correct Answer&quot;" style="rounded=1;whiteSpace=wrap;html=1;strokeWidth=2;" vertex="1" parent="1">
          <mxGeometry x="70" y="930" width="105" height="100" as="geometry" />
        </mxCell>
        <mxCell id="MSWiMdGF2W7rRZncoCtX-23" value="Go to &quot;Update score&quot;" style="rounded=1;whiteSpace=wrap;html=1;strokeWidth=2;" vertex="1" parent="1">
          <mxGeometry x="610" y="930" width="105" height="100" as="geometry" />
        </mxCell>
        <mxCell id="MSWiMdGF2W7rRZncoCtX-27" style="edgeStyle=orthogonalEdgeStyle;rounded=0;orthogonalLoop=1;jettySize=auto;html=1;entryX=0;entryY=0.5;entryDx=0;entryDy=0;" edge="1" parent="1" target="MSWiMdGF2W7rRZncoCtX-26">
          <mxGeometry relative="1" as="geometry">
            <mxPoint x="240" y="1250" as="targetPoint" />
            <mxPoint x="213" y="980" as="sourcePoint" />
            <Array as="points">
              <mxPoint x="213" y="1250" />
            </Array>
          </mxGeometry>
        </mxCell>
        <mxCell id="MSWiMdGF2W7rRZncoCtX-32" style="edgeStyle=orthogonalEdgeStyle;rounded=0;orthogonalLoop=1;jettySize=auto;html=1;exitX=1;exitY=0.5;exitDx=0;exitDy=0;entryX=0.5;entryY=0;entryDx=0;entryDy=0;entryPerimeter=0;" edge="1" parent="1" source="MSWiMdGF2W7rRZncoCtX-26" target="MSWiMdGF2W7rRZncoCtX-35">
          <mxGeometry relative="1" as="geometry">
            <mxPoint x="399" y="1407" as="targetPoint" />
            <mxPoint x="360" y="1260" as="sourcePoint" />
          </mxGeometry>
        </mxCell>
        <mxCell id="MSWiMdGF2W7rRZncoCtX-26" value="&quot;Print &#39;incorrect! The correct answer was: [correct answer]&quot;" style="rounded=1;whiteSpace=wrap;html=1;strokeWidth=2;" vertex="1" parent="1">
          <mxGeometry x="244" y="1200" width="105" height="100" as="geometry" />
        </mxCell>
        <mxCell id="MSWiMdGF2W7rRZncoCtX-31" style="edgeStyle=orthogonalEdgeStyle;rounded=0;orthogonalLoop=1;jettySize=auto;html=1;entryX=1;entryY=0.5;entryDx=0;entryDy=0;" edge="1" parent="1" target="MSWiMdGF2W7rRZncoCtX-28">
          <mxGeometry relative="1" as="geometry">
            <mxPoint x="558" y="1250" as="targetPoint" />
            <mxPoint x="581" y="980" as="sourcePoint" />
            <Array as="points">
              <mxPoint x="581" y="1250" />
            </Array>
          </mxGeometry>
        </mxCell>
        <mxCell id="MSWiMdGF2W7rRZncoCtX-40" style="edgeStyle=orthogonalEdgeStyle;rounded=0;orthogonalLoop=1;jettySize=auto;html=1;exitX=0.5;exitY=1;exitDx=0;exitDy=0;" edge="1" parent="1" source="MSWiMdGF2W7rRZncoCtX-28">
          <mxGeometry relative="1" as="geometry">
            <mxPoint x="399" y="1390" as="targetPoint" />
          </mxGeometry>
        </mxCell>
        <mxCell id="MSWiMdGF2W7rRZncoCtX-28" value="&quot;Print &#39;incorrect!&#39; and update score&quot;" style="rounded=1;whiteSpace=wrap;html=1;strokeWidth=2;" vertex="1" parent="1">
          <mxGeometry x="449" y="1200" width="105" height="100" as="geometry" />
        </mxCell>
        <mxCell id="MSWiMdGF2W7rRZncoCtX-37" style="edgeStyle=orthogonalEdgeStyle;rounded=0;orthogonalLoop=1;jettySize=auto;html=1;entryX=0;entryY=0.5;entryDx=0;entryDy=0;" edge="1" parent="1" source="MSWiMdGF2W7rRZncoCtX-35" target="MSWiMdGF2W7rRZncoCtX-36">
          <mxGeometry relative="1" as="geometry" />
        </mxCell>
        <mxCell id="MSWiMdGF2W7rRZncoCtX-39" style="edgeStyle=orthogonalEdgeStyle;rounded=0;orthogonalLoop=1;jettySize=auto;html=1;entryX=1;entryY=0.5;entryDx=0;entryDy=0;" edge="1" parent="1" source="MSWiMdGF2W7rRZncoCtX-35" target="MSWiMdGF2W7rRZncoCtX-38">
          <mxGeometry relative="1" as="geometry" />
        </mxCell>
        <mxCell id="MSWiMdGF2W7rRZncoCtX-42" value="" style="edgeStyle=orthogonalEdgeStyle;rounded=0;orthogonalLoop=1;jettySize=auto;html=1;" edge="1" parent="1" source="MSWiMdGF2W7rRZncoCtX-35" target="MSWiMdGF2W7rRZncoCtX-41">
          <mxGeometry relative="1" as="geometry" />
        </mxCell>
        <mxCell id="MSWiMdGF2W7rRZncoCtX-35" value="is the selected category empty?" style="strokeWidth=2;html=1;shape=mxgraph.flowchart.decision;whiteSpace=wrap;" vertex="1" parent="1">
          <mxGeometry x="349" y="1410" width="100" height="100" as="geometry" />
        </mxCell>
        <mxCell id="MSWiMdGF2W7rRZncoCtX-36" value="Go to &quot;Remove Category&quot;" style="rounded=1;whiteSpace=wrap;html=1;strokeWidth=2;" vertex="1" parent="1">
          <mxGeometry x="610" y="1410" width="105" height="100" as="geometry" />
        </mxCell>
        <mxCell id="MSWiMdGF2W7rRZncoCtX-38" value="Go to &quot;Check if Move Categories Remain&quot;" style="rounded=1;whiteSpace=wrap;html=1;strokeWidth=2;" vertex="1" parent="1">
          <mxGeometry x="70" y="1410" width="105" height="100" as="geometry" />
        </mxCell>
        <mxCell id="MSWiMdGF2W7rRZncoCtX-44" value="" style="edgeStyle=orthogonalEdgeStyle;rounded=0;orthogonalLoop=1;jettySize=auto;html=1;" edge="1" parent="1" source="MSWiMdGF2W7rRZncoCtX-41" target="MSWiMdGF2W7rRZncoCtX-43">
          <mxGeometry relative="1" as="geometry" />
        </mxCell>
        <mxCell id="MSWiMdGF2W7rRZncoCtX-41" value="&quot;Remove selected category from available categories&quot;" style="rounded=1;whiteSpace=wrap;html=1;strokeWidth=2;" vertex="1" parent="1">
          <mxGeometry x="346.5" y="1608" width="105" height="100" as="geometry" />
        </mxCell>
        <mxCell id="MSWiMdGF2W7rRZncoCtX-43" value="end" style="strokeWidth=2;html=1;shape=mxgraph.flowchart.start_1;whiteSpace=wrap;" vertex="1" parent="1">
          <mxGeometry x="269" y="1827" width="100" height="60" as="geometry" />
        </mxCell>
      </root>
    </mxGraphModel>
  </diagram>
</mxfile>
